<svg xmlns="http://www.w3.org/2000/svg" width="48" height="32" viewBox="0 0 48 32"><defs><style>.a{fill:#fff;}.b{fill:#060809;}.b,.c{fill-rule:evenodd;}.c{fill:#0fa0ea;}</style></defs><g transform="translate(-1165 -244)"><rect class="a" width="48" height="32" rx="4" transform="translate(1165 244)"/><g transform="translate(1171.31 252.729)"><path class="b" d="M2.987,64.52a4.942,4.942,0,0,0-2.743.958L.81,66.662a3.249,3.249,0,0,1,2.02-.836c.688,0,1.062.226,1.062.688,0,.313-.253.47-.723.531C1.393,67.272,0,67.759,0,69.126a1.74,1.74,0,0,0,1.977,1.741,2.341,2.341,0,0,0,1.994-1.106v.932h1.6v-3.91C5.573,65.173,4.449,64.52,2.987,64.52Zm-.6,5.094c-.453,0-.679-.218-.679-.583,0-.679.758-.906,2.142-1.054A1.522,1.522,0,0,1,2.386,69.614ZM20.68,65.7v-1.01h-1.6v6h1.715V67.8c0-1.376.827-1.776,1.411-1.776a1.328,1.328,0,0,1,.731.218l.313-1.585a1.937,1.937,0,0,0-.766-.139,1.819,1.819,0,0,0-1.8,1.184ZM31.207,64.52a2.4,2.4,0,0,0-1.942,1.054,1.976,1.976,0,0,0-1.855-1.054,2.008,2.008,0,0,0-1.829,1.08v-.906H23.928v6h1.715V67.6c0-1.106.583-1.637,1.123-1.637.488,0,.94.313.94,1.132v3.6h1.724V67.6c0-1.123.566-1.637,1.132-1.637.453,0,.932.331.932,1.123v3.6H33.21V66.549a1.888,1.888,0,0,0-2-2.029Zm-19.574-.27v.444h-2.6v-.61c0-.792.453-1.019.845-1.019a1.609,1.609,0,0,1,.766.192l.531-1.21A3.05,3.05,0,0,0,9.656,61.7a2.263,2.263,0,0,0-2.342,2.56V64.7H6.322v1.324h.993v4.667H9.029V66.018h2.6v4.676h1.715V66.018h1.559V64.694H13.348v-.61c0-.792.453-1.019.845-1.019a1.68,1.68,0,0,1,.766.192l.531-1.21a2.974,2.974,0,0,0-1.515-.348A2.255,2.255,0,0,0,11.633,64.25Zm4.293.444h1.715v6H15.926Z" transform="translate(0 -56.327)"/><path class="c" d="M193.626,0A10.447,10.447,0,0,0,183.7,7.349h1.681a8.763,8.763,0,0,1,8.246-5.782c4.806,0,8.951,3.657,8.951,9.352a11.7,11.7,0,0,1-.479,3.448h1.628l.017-.052a13.7,13.7,0,0,0,.4-3.4C204.145,4.571,199.521,0,193.626,0" transform="translate(-167.705)"/></g></g></svg>
