<svg xmlns="http://www.w3.org/2000/svg" width="48" height="32" viewBox="0 0 48 32"><defs><style>.a{fill:#fff;}</style></defs><g transform="translate(-1165 -244)"><rect class="a" width="48" height="32" rx="4" transform="translate(1165 244)"/><path d="M-367.678,29.28a2.24,2.24,0,0,1-1.795.848,2.54,2.54,0,0,1,.641-1.859,2.677,2.677,0,0,1,1.781-.919,2.7,2.7,0,0,1-.627,1.93m.62.983c-.99-.057-1.838.563-2.308.563s-1.2-.534-1.98-.52a2.926,2.926,0,0,0-2.486,1.51c-1.068,1.838-.278,4.559.755,6.055.506.741,1.111,1.553,1.909,1.524.755-.028,1.054-.491,1.966-.491s1.182.491,1.98.477c.826-.014,1.346-.741,1.852-1.482a6.5,6.5,0,0,0,.826-1.7,2.684,2.684,0,0,1-1.61-2.443,2.741,2.741,0,0,1,1.3-2.294,2.823,2.823,0,0,0-2.208-1.2m5.72-2.066V39.3h1.724v-3.8h2.386a3.525,3.525,0,0,0,3.711-3.661,3.483,3.483,0,0,0-3.654-3.647Zm1.724,1.453h1.987a2.072,2.072,0,0,1,2.351,2.2,2.079,2.079,0,0,1-2.358,2.208h-1.98Zm9.246,9.737a2.852,2.852,0,0,0,2.543-1.417h.036V39.3h1.6V33.775c0-1.6-1.282-2.635-3.255-2.635-1.831,0-3.184,1.047-3.234,2.486h1.553a1.513,1.513,0,0,1,1.631-1.133c1.054,0,1.645.491,1.645,1.4V34.5l-2.151.128c-2,.121-3.084.94-3.084,2.365A2.444,2.444,0,0,0-350.37,39.388Zm.463-1.318c-.919,0-1.5-.442-1.5-1.118,0-.7.563-1.1,1.638-1.168l1.916-.121v.627A1.873,1.873,0,0,1-349.907,38.07Zm5.841,4.252c1.681,0,2.472-.641,3.163-2.586l3.027-8.491h-1.752l-2.03,6.56h-.036l-2.03-6.56h-1.8l2.92,8.085-.157.491a1.37,1.37,0,0,1-1.453,1.154c-.135,0-.4-.014-.506-.028V42.28A4.747,4.747,0,0,0-344.066,42.322Z" transform="translate(1545.313 226.227)"/></g></svg>
